<svg xmlns="http://www.w3.org/2000/svg" viewBox="0 0 600 600" width="300" height="300" role="img" aria-label="Empreinte thermique 4">
<path d="M0.0 73.6 L20.0 59.1 L62.0 42.7 L91.0 34.7 L150.0 24.0 L183.0 23.9 L228.0 33.7 L260.0 31.6 L279.0 23.6 L310.7 0.0 Z M391.2 0.0 L400.4 10.0 L405.5 22.0 L406.3 79.0 L410.5 97.0 L418.0 113.2 L428.0 125.8 L440.0 135.2 L511.0 168.5 L535.4 187.0 L543.8 204.0 L549.8 247.0 L557.3 271.0 L571.0 296.9 L599.0 336.7 Z M599.0 362.8 L589.3 370.0 L576.0 373.0 L522.0 367.5 L500.0 370.7 L485.0 380.5 L462.4 409.0 L449.0 420.3 L433.0 427.5 L386.0 438.9 L362.6 448.0 L273.0 510.6 L258.0 512.8 L217.0 498.0 L188.0 497.1 L169.0 506.5 L136.0 541.6 L124.0 546.2 L111.0 545.6 L99.0 540.3 L90.7 532.0 L81.2 502.0 L76.0 493.6 L41.0 473.9 L29.0 457.7 L27.3 434.0 L38.7 358.0 L33.6 306.0 L40.3 267.0 L33.6 253.0 L0.0 218.0 Z" fill="#1A0E8C" fill-rule="evenodd"/>
<path d="M135.0 488.2 L126.0 486.4 L102.4 467.0 L68.4 449.0 L61.5 442.0 L58.1 433.0 L58.1 417.0 L68.4 367.0 L72.8 318.0 L87.7 276.0 L90.4 258.0 L88.2 241.0 L81.8 225.0 L72.0 210.9 L52.1 190.0 L47.6 181.0 L48.6 172.0 L59.7 147.0 L63.6 132.0 L63.4 118.0 L58.6 96.0 L59.8 87.0 L68.0 78.0 L82.0 71.6 L167.0 51.6 L250.0 45.7 L320.0 23.6 L334.0 23.5 L346.5 27.0 L357.0 34.2 L365.0 45.5 L393.0 123.6 L412.0 155.8 L434.0 172.6 L485.0 191.7 L501.8 207.0 L507.4 220.0 L515.7 258.0 L532.1 302.0 L534.0 314.0 L532.3 323.0 L524.0 331.0 L492.0 342.3 L476.0 351.7 L464.0 363.4 L442.8 392.0 L429.0 403.2 L354.0 429.5 L296.0 461.3 L276.0 467.6 L253.0 470.7 L174.0 469.9 L160.6 474.0 L135.0 488.2 Z" fill="#2B1BFF" fill-rule="evenodd"/>
<path d="M133.0 453.0 L114.0 450.9 L91.0 440.3 L80.6 430.0 L76.4 416.0 L87.9 324.0 L104.5 281.0 L108.4 263.0 L107.0 231.0 L94.1 186.0 L92.1 171.0 L96.1 146.0 L108.4 111.0 L117.5 98.0 L130.5 88.0 L152.0 77.8 L178.0 69.5 L253.0 61.6 L304.0 52.9 L318.0 53.3 L331.0 57.3 L346.0 68.6 L359.0 87.0 L387.6 160.0 L400.0 181.6 L418.0 198.0 L455.0 217.6 L466.0 229.3 L492.4 288.0 L494.3 300.0 L491.8 310.0 L455.0 347.5 L429.7 380.0 L418.0 390.1 L398.0 399.9 L343.0 418.2 L295.0 442.2 L269.0 449.1 L229.0 452.3 L167.0 444.3 L133.0 453.0 Z" fill="#7A1FD6" fill-rule="evenodd"/>
<path d="M129.0 438.1 L113.0 437.0 L98.0 429.4 L90.2 419.0 L87.6 404.0 L97.6 328.0 L115.8 285.0 L120.5 266.0 L121.7 228.0 L115.3 165.0 L118.8 144.0 L127.5 123.0 L138.0 108.7 L152.0 97.2 L171.0 87.6 L193.0 80.8 L293.0 71.6 L312.0 73.2 L327.0 78.7 L343.0 92.1 L355.9 113.0 L363.8 136.0 L374.5 184.0 L381.6 200.0 L393.9 213.0 L434.5 243.0 L457.5 274.0 L466.3 297.0 L462.3 315.0 L418.0 372.1 L405.0 382.6 L388.0 390.8 L337.0 405.7 L294.0 424.6 L274.0 430.3 L223.0 434.0 L174.0 424.4 L129.0 438.1 Z" fill="#C21FB0" fill-rule="evenodd"/>
<path d="M125.0 427.1 L112.0 424.9 L102.0 417.1 L97.4 406.0 L96.9 390.0 L106.0 331.0 L125.9 289.0 L131.7 269.0 L138.3 205.0 L136.7 155.0 L145.5 128.0 L155.8 115.0 L170.0 104.3 L188.0 96.0 L208.0 90.8 L239.0 87.7 L286.0 87.3 L307.0 90.2 L322.0 96.4 L338.0 111.4 L348.0 134.0 L351.2 161.0 L348.1 200.0 L351.0 212.0 L364.2 225.0 L410.0 249.4 L429.3 268.0 L439.2 284.0 L443.6 298.0 L442.8 310.0 L437.0 323.0 L406.0 363.5 L393.7 373.0 L379.0 379.6 L318.0 390.3 L276.0 401.7 L241.0 408.2 L179.0 407.4 L138.0 424.1 L125.0 427.1 Z" fill="#FF2E88" fill-rule="evenodd"/>
<path d="M130.0 417.2 L117.0 416.2 L108.2 409.0 L104.3 397.0 L104.8 378.0 L113.5 333.0 L135.4 292.0 L142.3 271.0 L158.4 200.0 L155.4 153.0 L161.7 132.0 L171.0 120.6 L184.0 111.3 L200.0 104.5 L218.0 100.5 L245.0 98.8 L277.0 100.3 L298.0 103.9 L313.0 110.1 L327.0 123.8 L333.5 143.0 L333.0 164.0 L324.0 202.0 L327.1 219.0 L343.0 235.5 L392.6 258.0 L412.6 274.0 L420.5 286.0 L424.3 299.0 L423.3 311.0 L417.5 324.0 L396.0 350.8 L376.0 363.0 L358.0 365.5 L319.0 359.6 L297.0 361.4 L232.0 386.2 L179.0 394.9 L130.0 417.2 Z" fill="#FF5A1F" fill-rule="evenodd"/>
<path d="M133.0 408.2 L121.0 407.6 L113.0 399.4 L110.6 386.0 L112.7 364.0 L121.7 332.0 L149.0 286.0 L162.0 244.0 L177.7 205.0 L179.7 187.0 L173.8 152.0 L178.0 135.9 L185.0 127.0 L196.0 119.2 L224.0 110.9 L266.8 112.0 L299.0 121.6 L310.3 132.0 L315.5 147.0 L315.0 164.0 L306.6 204.0 L311.0 225.6 L319.2 237.0 L332.0 247.7 L379.0 268.8 L394.8 280.0 L401.3 289.0 L404.1 298.0 L403.8 307.0 L399.7 317.0 L387.0 331.5 L372.0 338.6 L359.0 338.1 L331.0 329.6 L312.0 332.4 L232.0 369.8 L178.0 385.1 L133.0 408.2 Z" fill="#FF9A00" fill-rule="evenodd"/>
<path d="M136.0 399.1 L125.7 399.0 L119.0 391.8 L117.2 378.0 L120.0 357.8 L129.8 332.0 L160.6 288.0 L197.2 209.0 L200.3 191.0 L193.6 156.0 L196.0 141.0 L208.0 129.1 L228.0 123.0 L255.0 123.8 L279.0 131.3 L290.6 141.0 L296.2 155.0 L292.1 206.0 L294.5 224.0 L302.1 239.0 L327.5 274.0 L329.1 285.0 L300.0 315.0 L270.9 335.0 L229.0 357.8 L178.0 375.8 L136.0 399.1 Z" fill="#FFD400" fill-rule="evenodd"/>
<path d="M140.0 387.0 L131.0 386.5 L126.2 378.0 L127.2 362.0 L133.0 344.9 L142.1 331.0 L184.7 283.0 L210.4 240.0 L225.2 201.0 L224.9 162.0 L227.3 153.0 L239.0 146.4 L256.0 149.5 L266.5 158.0 L272.4 171.0 L275.6 223.0 L294.6 268.0 L294.4 280.0 L290.5 292.0 L276.2 311.0 L250.6 330.0 L224.0 344.8 L180.0 363.2 L140.0 387.0 Z" fill="#FFF6D8" fill-rule="evenodd"/>
</svg>
